<?xml version="1.0" encoding="UTF-8"?>
<!DOCTYPE svg PUBLIC "-//W3C//DTD SVG 1.1//EN" "http://www.w3.org/Graphics/SVG/1.1/DTD/svg11.dtd">
<!-- Creator: CorelDRAW 2020 (64-Bit) -->
<svg xmlns="http://www.w3.org/2000/svg" xml:space="preserve" width="127mm" height="127mm" version="1.1" style="shape-rendering:geometricPrecision; text-rendering:geometricPrecision; image-rendering:optimizeQuality; fill-rule:evenodd; clip-rule:evenodd"
viewBox="0 0 12700 12700"
 xmlns:xlink="http://www.w3.org/1999/xlink"
 xmlns:xodm="http://www.corel.com/coreldraw/odm/2003">
 <defs>
  <style type="text/css">
   <![CDATA[
    .fil0 {fill:none}
    .fil4 {fill:#FEFEFE}
    .fil3 {fill:#E62129}
    .fil2 {fill:#E62129;fill-rule:nonzero}
    .fil1 {fill:#222222;fill-rule:nonzero}
   ]]>
  </style>
 </defs>
 <g id="Layer_x0020_1">
  <metadata id="CorelCorpID_0Corel-Layer"/>
  <rect class="fil0" width="12700" height="12700"/>
  <g id="_2028705884448">
   <path class="fil1" d="M10711.59 6467.22c-79.98,70.56 -153.68,131.32 -221.11,182.3 -67.43,50.95 -130.94,93.68 -190.53,128.18 59.59,34.51 122.33,77.24 188.2,128.19 65.84,50.98 140.32,111.74 223.44,182.3 12.56,10.97 23.15,24.31 31.76,39.98 8.61,15.69 12.94,32.14 12.94,49.39 0,31.37 -10.97,58.04 -32.95,79.99 -21.94,21.94 -48.61,32.92 -79.95,32.92 -26.67,0 -53.34,-10.98 -79.98,-32.92 -100.38,-87.82 -184.64,-156.41 -252.87,-205.81 -68.21,-49.39 -129.35,-85.87 -183.47,-109.38 -54.09,-23.53 -105.46,-38.03 -154.05,-43.53 -48.62,-5.47 -103.52,-8.22 -164.66,-8.22l-51.76 0c-51.76,1.55 -99.57,5.89 -143.49,12.94 -43.9,7.06 -91.32,23.12 -142.3,48.2 -50.95,25.09 -108.99,61.96 -174.05,110.58 -65.09,48.59 -144.66,113.68 -238.76,195.22 -12.55,9.42 -25.08,17.25 -37.64,23.53 -12.53,6.25 -26.64,9.39 -42.34,9.39 -31.37,0 -58.01,-10.98 -79.96,-32.92 -21.97,-21.95 -32.94,-48.62 -32.94,-79.99 0,-17.25 4.33,-33.7 12.94,-49.39 8.61,-15.67 19.2,-29.01 31.76,-39.98 79.98,-70.56 153.68,-130.93 221.11,-181.11 67.43,-50.2 130.94,-92.54 190.53,-127.02 -59.59,-34.5 -122.71,-77.23 -189.36,-128.21 -66.65,-50.95 -140.74,-112.51 -222.28,-184.63 -12.56,-10.98 -23.15,-24.31 -31.76,-39.98 -8.61,-15.7 -12.94,-32.17 -12.94,-49.4 0,-31.36 10.97,-58.03 32.94,-79.98 21.95,-21.95 48.59,-32.95 79.96,-32.95 15.7,0 29.81,3.14 42.34,9.42 12.56,6.28 25.09,14.11 37.64,23.53 95.66,84.68 176.42,151.33 242.29,199.94 65.84,48.59 125.04,85.07 177.58,109.38 52.53,24.28 101.93,39.98 148.18,47.03 46.26,7.06 96.85,10.59 151.72,10.59l35.28 0c61.15,0 115.27,-2.36 162.3,-7.06 47.06,-4.69 97.24,-18.81 150.55,-42.34 53.31,-23.53 114.07,-59.98 182.3,-109.37 68.21,-49.4 153.28,-118.8 255.21,-208.17 26.64,-21.95 53.31,-32.95 79.98,-32.95 31.34,0 58.01,11 79.95,32.95 21.98,21.95 32.95,48.62 32.95,79.98 0,17.23 -4.33,33.7 -12.94,49.4 -8.61,15.67 -19.2,29 -31.76,39.98z"/>
   <path class="fil1" d="M7013.97 6664.8l543.35 0c81.54,0 161.53,-10.59 239.93,-31.76 78.4,-21.17 154.85,-49 229.33,-83.51 74.49,-34.5 145.83,-73.7 214.06,-117.6 68.2,-43.92 133.66,-88.59 196.39,-134.07 26.67,-21.95 53.31,-32.95 79.98,-32.95 31.37,0 58.01,11 79.99,32.95 21.94,21.95 32.92,48.62 32.92,79.98 0,21.95 -6.28,41.15 -18.81,57.62 -12.56,16.48 -27.45,30.98 -44.7,43.51 -40.79,31.36 -79.99,60.76 -117.6,88.2 -37.65,27.45 -75.29,52.93 -112.91,76.46 -37.64,23.53 -76.45,46.26 -116.43,68.2 -40,21.95 -82.73,43.93 -128.21,65.87 45.48,21.95 88.21,43.9 128.21,65.87 39.98,21.95 78.79,44.68 116.43,68.21 37.62,23.53 75.26,49 112.91,76.45 37.61,27.42 76.81,56.84 117.6,88.21 17.25,12.53 32.14,27.03 44.7,43.5 12.53,16.48 18.81,35.68 18.81,57.62 0,31.37 -10.98,58.04 -32.92,79.99 -21.98,21.94 -48.62,32.92 -79.99,32.92 -26.67,0 -53.31,-10.98 -79.98,-32.92 -64.29,-47.04 -130.55,-92.52 -198.75,-136.44 -68.2,-43.89 -139.19,-83.09 -212.86,-117.6 -73.71,-34.5 -149.77,-61.95 -228.17,-82.31 -78.4,-20.4 -158.39,-30.59 -239.93,-30.59l-543.35 0 0 286.95c0,31.37 -10.97,58.04 -32.95,79.99 -21.95,21.94 -47.81,32.92 -77.62,32.92 -31.37,0 -58.01,-10.98 -79.96,-32.92 -21.97,-21.95 -32.94,-48.62 -32.94,-79.99l0 -799.72c0,-31.36 10.97,-58.03 32.94,-79.98 21.95,-21.95 47.82,-32.95 77.63,-32.95 31.36,0 58,11 79.95,32.95 21.98,21.95 32.95,48.62 32.95,79.98l0 286.96z"/>
   <path class="fil1" d="M6355.35 6307.28c23.53,-28.26 52.54,-42.37 87.04,-42.37 31.37,0 58.01,11 79.99,32.95 21.94,21.95 32.92,48.62 32.92,79.98 0,28.23 -7.84,50.95 -23.53,68.21l-2.34 2.36 -569.24 766.8c-28.23,36.06 -63.9,65.48 -107.02,88.2 -43.12,22.73 -89.79,34.12 -139.96,34.12 -47.04,0 -91.35,-10.2 -132.91,-30.59 -41.53,-20.39 -76.43,-48.61 -104.65,-84.68l-571.58 -764.46c-9.42,-10.98 -17.25,-23.12 -23.53,-36.45 -6.28,-13.34 -9.42,-27.84 -9.42,-43.51 0,-31.36 10.97,-58.03 32.95,-79.98 21.95,-21.95 48.59,-32.95 79.95,-32.95 37.65,0 67.43,14.92 89.41,44.7l548.04 731.55c10.98,12.53 24.7,26.25 41.18,41.14 16.44,14.92 33.31,22.36 50.56,22.36 17.25,0 34.11,-7.44 50.56,-22.36 16.48,-14.89 29.42,-28.61 38.81,-41.14l552.77 -733.88z"/>
   <path class="fil2" d="M2966.41 6731.03l0 93.35c-1.94,-16.31 -2.92,-31.87 -2.92,-46.68 0,-14.8 0.98,-30.36 2.92,-46.67z"/>
   <path class="fil2" d="M4424.2 6664.8c31.36,0 58.03,10.97 79.98,32.92 21.95,21.95 32.92,48.62 32.92,79.98 0,31.37 -10.97,58.01 -32.92,79.99 -21.95,21.94 -48.62,32.92 -79.98,32.92l-1012.87 0 0 174.05 1111.66 0c31.36,0 58.03,10.97 79.98,32.95 21.95,21.95 32.92,48.59 32.92,79.95 0,31.37 -10.97,58.04 -32.92,79.99 -21.95,21.94 -48.62,32.92 -79.98,32.92l-1371.33 0c-64.29,0 -121.52,-15.67 -171.69,-47.04 -50.2,-31.36 -92.93,-71.73 -128.21,-121.12 -35.29,-49.4 -62.32,-104.68 -81.15,-165.83 -18.81,-61.18 -28.23,-120.77 -28.23,-178.78 0,-59.59 9.81,-119.57 29.42,-179.94 19.59,-60.37 48.2,-115.26 85.85,-164.66 37.64,-49.4 83.12,-89.76 136.43,-121.13 53.32,-31.36 113.68,-47.06 181.11,-47.06l1347.8 0c31.36,0 58.03,11 79.98,32.95 21.95,21.95 32.92,48.62 32.92,79.98 0,31.34 -10.97,58.01 -32.92,79.96 -21.95,21.95 -48.62,32.95 -79.98,32.95l-1111.66 0 0 174.05 1012.87 0z"/>
   <path class="fil3" d="M10256.06 5543.84l149.05 -219.37c-101.77,4.98 -152.86,11.81 -207.73,4.48 -217.97,-29.12 98.1,-103.16 405.5,-160.41 191.42,-35.65 314.6,-45.12 495.49,-108.94 96.04,-33.86 40.67,112.16 -122.1,235.48 -32.34,0.28 -86.49,3.89 -152.11,8.75l-162.49 289.35c308.29,68.4 390.22,96.65 189.3,97.35 -1140.82,3.94 -1779.99,304.51 -2731.74,288.42l-3971.27 -41.84c-1033.19,32.73 -1010.64,26.73 -1946.9,398.14 -363.39,144.16 -371,250.9 -90.66,266.18l599.03 32.67 139.05 -11.2c-22.2,127.16 98.43,50.54 117.93,201.48l-220.42 16.17 -724.26 -1.81c-416.51,-1.03 -769.42,-346.91 -67.79,-633.81 1051.56,-430 1060.67,-438.26 2248.28,-480.32 1194.03,22.92 2386.58,-0.27 3580.61,22.67 106.82,3.23 558.24,-43.67 623.31,-144.77 18.41,-28.61 -76.01,-56.03 -150.5,-88.95 -370.19,-163.61 -1584.55,-376.47 -2366.91,-278.65 -576.49,60.14 -833.2,210.33 -1346.85,421.3 -89.93,36.95 -213.7,37.54 -209.97,18.48 1873.42,-1059.62 3244.44,-655.42 4963.85,-297.65 332.74,69.23 586.66,115.24 960.3,166.8zm111.96 15.75c53.84,7.78 54.87,14.47 109.46,13.97l185.11 -261.67c-60.43,4.61 -84.15,10.47 -146.52,14.25l-148.05 233.45z"/>
   <polygon class="fil4" points="8683.87,5597.85 8846.87,5593.32 8808.11,5859.72 8982.69,5534.47 8842.33,5529.93 8877.41,5329.69 "/>
   <path class="fil1" d="M2923.83 7649.1l0 -172.98c0,-7.59 1.45,-14.8 4.36,-21.61 2.9,-6.82 6.88,-12.79 11.89,-17.93 5.03,-5.14 10.9,-9.17 17.61,-12.07 6.71,-2.91 13.97,-4.36 21.78,-4.36l47.6 0 0 40.22 -47.6 0c-4.46,0 -8.15,1.51 -11.06,4.53 -2.91,3.02 -4.36,6.76 -4.36,11.22l0 68.06 63.02 0 0 40.22 -63.02 0 0 64.7c0,4.46 1.45,8.2 4.36,11.22 2.91,3.02 6.6,4.53 11.06,4.53l47.6 0 0 40.22 -47.6 0c-7.81,0 -15.07,-1.46 -21.78,-4.36 -6.71,-2.9 -12.58,-6.93 -17.61,-12.07 -5.01,-5.13 -8.99,-11.06 -11.89,-17.76 -2.91,-6.71 -4.36,-13.97 -4.36,-21.78zm234.75 55.97l0 -284.92 40.22 0 0 244.7 51.96 0 0 40.22 -92.18 0zm211.63 -55.97l0 -172.98c0,-7.59 1.46,-14.8 4.37,-21.61 2.89,-6.82 6.87,-12.79 11.89,-17.93 5.02,-5.14 10.9,-9.17 17.6,-12.07 6.71,-2.91 13.97,-4.36 21.78,-4.36l47.61 0 0 40.22 -47.61 0c-4.46,0 -8.14,1.51 -11.05,4.53 -2.91,3.02 -4.37,6.76 -4.37,11.22l0 68.06 63.03 0 0 40.22 -63.03 0 0 64.7c0,4.46 1.46,8.2 4.37,11.22 2.91,3.02 6.59,4.53 11.05,4.53l47.61 0 0 40.22 -47.61 0c-7.81,0 -15.07,-1.46 -21.78,-4.36 -6.7,-2.9 -12.58,-6.93 -17.6,-12.07 -5.02,-5.13 -9,-11.06 -11.89,-17.76 -2.91,-6.71 -4.37,-13.97 -4.37,-21.78zm234.76 0l0 -172.98c0,-7.59 1.45,-14.8 4.36,-21.61 2.9,-6.82 6.87,-12.79 11.89,-17.93 5.03,-5.14 10.9,-9.17 17.61,-12.07 6.7,-2.91 13.96,-4.36 21.78,-4.36l47.6 0 0 40.22 -47.6 0c-4.46,0 -8.15,1.51 -11.06,4.53 -2.91,3.02 -4.36,6.76 -4.36,11.22l0 172.98c0,4.46 1.45,8.2 4.36,11.22 2.91,3.02 6.6,4.53 11.06,4.53l47.6 0 0 40.22 -47.6 0c-7.82,0 -15.08,-1.46 -21.78,-4.36 -6.71,-2.9 -12.58,-6.93 -17.61,-12.07 -5.02,-5.13 -8.99,-11.06 -11.89,-17.76 -2.91,-6.71 -4.36,-13.97 -4.36,-21.78zm277.33 55.97l0 -244.7 -47.27 0 0 -40.22 135.09 0 0 40.22 -47.6 0 0 244.7 -40.22 0zm214.63 0l0 -284.92 65.37 0c10.28,0 19.22,1.73 26.81,5.19 7.61,3.47 13.91,8.16 18.94,14.08 5.03,5.93 8.77,12.8 11.24,20.62 2.45,7.82 3.68,15.97 3.68,24.46l0 59.68c0,5.36 -1.9,9.94 -5.69,13.74l-18.11 17.43 34.52 129.72 -40.22 0 -27.48 -97.88 -28.84 27.82 0 70.06 -40.22 0zm85.82 -168.61l0 -51.96c0,-6.92 -1.45,-12.67 -4.36,-17.26 -2.9,-4.57 -8.27,-6.87 -16.09,-6.87l-25.15 0 0 119.33 45.6 -43.24zm171.73 168.61l0 -284.92 40.22 0 0 284.92 -40.22 0zm171.73 -55.97l0 -172.98c0,-7.59 1.45,-14.8 4.36,-21.61 2.9,-6.82 6.87,-12.79 11.89,-17.93 5.03,-5.14 10.9,-9.17 17.61,-12.07 6.71,-2.91 13.96,-4.36 21.78,-4.36l47.6 0 0 40.22 -47.6 0c-4.46,0 -8.15,1.51 -11.06,4.53 -2.91,3.02 -4.36,6.76 -4.36,11.22l0 172.98c0,4.46 1.45,8.2 4.36,11.22 2.91,3.02 6.6,4.53 11.06,4.53l47.6 0 0 40.22 -47.6 0c-7.82,0 -15.07,-1.46 -21.78,-4.36 -6.71,-2.9 -12.58,-6.93 -17.61,-12.07 -5.02,-5.13 -8.99,-11.06 -11.89,-17.76 -2.91,-6.71 -4.36,-13.97 -4.36,-21.78zm329.95 -228.95l36.53 226.92 36.54 -226.92 39.89 0 -45.59 284.92 -61.68 0 -45.58 -284.92 39.89 0zm230.39 228.95l0 -172.98c0,-7.59 1.45,-14.8 4.36,-21.61 2.9,-6.82 6.87,-12.79 11.89,-17.93 5.03,-5.14 10.9,-9.17 17.61,-12.07 6.7,-2.91 13.96,-4.36 21.78,-4.36l47.6 0 0 40.22 -47.6 0c-4.46,0 -8.15,1.51 -11.06,4.53 -2.91,3.02 -4.36,6.76 -4.36,11.22l0 68.06 63.02 0 0 40.22 -63.02 0 0 64.7c0,4.46 1.45,8.2 4.36,11.22 2.91,3.02 6.6,4.53 11.06,4.53l47.6 0 0 40.22 -47.6 0c-7.82,0 -15.08,-1.46 -21.78,-4.36 -6.71,-2.9 -12.58,-6.93 -17.61,-12.07 -5.02,-5.13 -8.99,-11.06 -11.89,-17.76 -2.91,-6.71 -4.36,-13.97 -4.36,-21.78zm325.25 55.97l0 -105.92 -50.28 0 0 105.92 -40.22 0 0 -284.92 40.22 0 0 138.77 50.28 0 0 -138.77 40.24 0 0 284.92 -40.24 0zm171.74 0l0 -284.92 40.22 0 0 284.92 -40.22 0zm171.73 -55.97l0 -172.98c0,-7.59 1.46,-14.8 4.37,-21.61 2.89,-6.82 6.87,-12.79 11.88,-17.93 5.03,-5.14 10.91,-9.17 17.61,-12.07 6.71,-2.91 13.97,-4.36 21.78,-4.36l47.61 0 0 40.22 -47.61 0c-4.46,0 -8.14,1.51 -11.05,4.53 -2.91,3.02 -4.37,6.76 -4.37,11.22l0 172.98c0,4.46 1.46,8.2 4.37,11.22 2.91,3.02 6.59,4.53 11.05,4.53l47.61 0 0 40.22 -47.61 0c-7.81,0 -15.07,-1.46 -21.78,-4.36 -6.7,-2.9 -12.58,-6.93 -17.61,-12.07 -5.01,-5.13 -8.99,-11.06 -11.88,-17.76 -2.91,-6.71 -4.37,-13.97 -4.37,-21.78zm234.76 55.97l0 -284.92 40.22 0 0 244.7 51.95 0 0 40.22 -92.17 0zm211.63 -55.97l0 -172.98c0,-7.59 1.45,-14.8 4.36,-21.61 2.9,-6.82 6.87,-12.79 11.89,-17.93 5.03,-5.14 10.9,-9.17 17.61,-12.07 6.7,-2.91 13.96,-4.36 21.78,-4.36l47.6 0 0 40.22 -47.6 0c-4.46,0 -8.15,1.51 -11.06,4.53 -2.91,3.02 -4.36,6.76 -4.36,11.22l0 68.06 63.02 0 0 40.22 -63.02 0 0 64.7c0,4.46 1.45,8.2 4.36,11.22 2.91,3.02 6.6,4.53 11.06,4.53l47.6 0 0 40.22 -47.6 0c-7.82,0 -15.08,-1.46 -21.78,-4.36 -6.71,-2.9 -12.58,-6.93 -17.61,-12.07 -5.02,-5.13 -8.99,-11.06 -11.89,-17.76 -2.91,-6.71 -4.36,-13.97 -4.36,-21.78zm402.02 55.97l-41.23 -104.92 -19.79 43.57 0 61.35 -40.22 0 0 -284.92 40.22 0 0 129.72 60.34 -129.72 41.91 0 -59.34 129.39 60.34 155.53 -42.23 0zm258.87 0l-60 -170.62 0 170.62 -40.22 0 0 -284.92 40.22 0 60 170.62 0 -170.62 40.22 0 0 284.92 -40.22 0zm225.03 1.34c-8.71,0 -16.37,-1.95 -22.95,-5.87 -6.6,-3.91 -12.13,-8.94 -16.6,-15.07 -4.48,-6.16 -7.89,-13.03 -10.23,-20.62 -2.34,-7.61 -3.52,-15.09 -3.52,-22.46l0 -159.56c0,-8.94 1.46,-17.38 4.37,-25.3 2.89,-7.94 7.04,-14.76 12.4,-20.45 5.36,-5.7 11.73,-10.23 19.1,-13.58 7.37,-3.35 15.53,-5.03 24.47,-5.03l15.75 0c8.94,0 16.99,1.79 24.14,5.36 7.15,3.58 13.24,8.33 18.27,14.25 5.03,5.93 8.83,12.8 11.39,20.61 2.58,7.83 3.85,15.88 3.85,24.14l0 159.56c0,7.82 -1.22,15.59 -3.68,23.29 -2.45,7.72 -6.03,14.59 -10.73,20.62 -4.69,6.04 -10.33,10.89 -16.93,14.59 -6.58,3.68 -13.91,5.52 -21.94,5.52l-27.16 0zm40.22 -64.3l0 -159.34c0,-6.41 -1.51,-11.96 -4.51,-16.53 -3.02,-4.58 -7.78,-7.09 -14.26,-7.55l-16.09 0c-6.92,0.68 -11.73,3.41 -14.4,8.22 -2.69,4.8 -4.04,10.06 -4.04,15.86l0 159.34c0,6.88 1.68,12.63 5.03,17.21 3.36,4.57 8.5,6.86 15.42,6.86l12.4 0c7.17,0 12.36,-2.4 15.59,-7.2 3.24,-4.8 4.86,-10.45 4.86,-16.87zm235.77 62.96l-48.6 0 -25.82 -284.92 38.89 0 18.76 200.78 32.85 -200.78 26.49 0 32.85 200.78 18.78 -200.78 38.87 0 -25.81 284.92 -48.6 0 -29.5 -143.47 -29.16 143.47zm254.19 0l0 -284.92 40.22 0 0 244.7 51.96 0 0 40.22 -92.18 0zm211.63 -55.97l0 -172.98c0,-7.59 1.46,-14.8 4.37,-21.61 2.89,-6.82 6.87,-12.79 11.88,-17.93 5.03,-5.14 10.91,-9.17 17.61,-12.07 6.71,-2.91 13.97,-4.36 21.78,-4.36l47.61 0 0 40.22 -47.61 0c-4.46,0 -8.14,1.51 -11.05,4.53 -2.91,3.02 -4.37,6.76 -4.37,11.22l0 68.06 63.03 0 0 40.22 -63.03 0 0 64.7c0,4.46 1.46,8.2 4.37,11.22 2.91,3.02 6.59,4.53 11.05,4.53l47.61 0 0 40.22 -47.61 0c-7.81,0 -15.07,-1.46 -21.78,-4.36 -6.7,-2.9 -12.58,-6.93 -17.61,-12.07 -5.01,-5.13 -8.99,-11.06 -11.88,-17.76 -2.91,-6.71 -4.37,-13.97 -4.37,-21.78zm234.76 55.97l0 -284.92 65.36 0c10.06,0 19.05,1.9 26.99,5.69 7.93,3.81 14.58,9.06 19.94,15.77 5.14,6.47 8.71,13.45 10.72,20.95 2.01,7.48 3.02,14.79 3.02,21.94l0 156.21c0,7.15 -1.01,14.47 -3.02,21.95 -2.01,7.5 -5.58,14.48 -10.72,20.96 -5.36,6.69 -12.01,11.96 -19.94,15.76 -7.94,3.79 -16.93,5.69 -26.99,5.69l-65.36 0zm65.36 -40.22c4.48,0 7.82,-0.62 10.06,-1.84 2.23,-1.24 3.91,-2.64 5.03,-4.2 1.57,-1.79 2.84,-4.24 3.85,-7.37 1,-3.13 1.51,-6.71 1.51,-10.73l0 -156.21c0,-4.02 -0.51,-7.59 -1.51,-10.72 -1.01,-3.13 -2.17,-5.58 -3.52,-7.37 -1.34,-1.57 -3.13,-2.97 -5.36,-4.2 -2.24,-1.22 -5.58,-1.84 -10.06,-1.84l-25.14 0 0 204.48 25.14 0zm320.9 -110.95l0 151.17 -53.29 0 -22.13 0c-8.72,0 -16.38,-2.01 -22.96,-6.03 -6.59,-4.03 -12.18,-9.17 -16.76,-15.42 -4.59,-6.26 -8,-13.19 -10.23,-20.78 -2.23,-7.61 -3.35,-14.87 -3.35,-21.79l0 -158.22c0,-8.94 1.46,-17.38 4.36,-25.3 2.9,-7.94 7.04,-14.76 12.4,-20.45 5.37,-5.7 11.74,-10.23 19.11,-13.58 7.37,-3.35 15.53,-5.03 24.47,-5.03l10.72 0c8.94,0 16.99,1.79 24.14,5.36 7.15,3.58 13.24,8.33 18.27,14.25 5.03,5.93 8.83,12.8 11.39,20.61 2.58,7.83 3.86,15.88 3.86,24.14l0 26.82 -40.23 0 0 -26.82c0,-6.47 -1.51,-12.02 -4.52,-16.59 -3.02,-4.58 -7.77,-7.09 -14.25,-7.55l-11.06 0c-6.93,0.68 -11.73,3.41 -14.41,8.22 -2.69,4.8 -4.03,10.06 -4.03,15.86l0 158c0,6.87 1.68,12.62 5.03,17.21 3.35,4.57 8.49,6.87 15.42,6.87l7.37 0 20.45 0 0 -70.73 -26.81 0 0 -40.22 67.04 0zm131.51 95.2l0 -172.98c0,-7.59 1.46,-14.8 4.37,-21.61 2.89,-6.82 6.87,-12.79 11.88,-17.93 5.03,-5.14 10.91,-9.17 17.61,-12.07 6.71,-2.91 13.97,-4.36 21.78,-4.36l47.61 0 0 40.22 -47.61 0c-4.46,0 -8.14,1.51 -11.05,4.53 -2.91,3.02 -4.37,6.76 -4.37,11.22l0 68.06 63.03 0 0 40.22 -63.03 0 0 64.7c0,4.46 1.46,8.2 4.37,11.22 2.91,3.02 6.59,4.53 11.05,4.53l47.61 0 0 40.22 -47.61 0c-7.81,0 -15.07,-1.46 -21.78,-4.36 -6.7,-2.9 -12.58,-6.93 -17.61,-12.07 -5.01,-5.13 -8.99,-11.06 -11.88,-17.76 -2.91,-6.71 -4.37,-13.97 -4.37,-21.78zm300.79 0l0 -172.98c0,-7.59 1.45,-14.8 4.36,-21.61 2.9,-6.82 6.88,-12.79 11.89,-17.93 5.03,-5.14 10.9,-9.17 17.61,-12.07 6.71,-2.91 13.97,-4.36 21.78,-4.36l47.6 0 0 40.22 -47.6 0c-4.46,0 -8.15,1.51 -11.06,4.53 -2.91,3.02 -4.36,6.76 -4.36,11.22l0 68.06 63.02 0 0 40.22 -63.02 0 0 64.7c0,4.46 1.45,8.2 4.36,11.22 2.91,3.02 6.6,4.53 11.06,4.53l47.6 0 0 40.22 -47.6 0c-7.81,0 -15.07,-1.46 -21.78,-4.36 -6.71,-2.9 -12.58,-6.93 -17.61,-12.07 -5.01,-5.13 -8.99,-11.06 -11.89,-17.76 -2.91,-6.71 -4.36,-13.97 -4.36,-21.78zm330.63 -228.95l40.88 0 -45.58 142.12 45.58 142.8 -39.89 0 -35.52 -105.25 -35.54 105.25 -39.88 0 45.58 -142.8 -45.58 -142.12 40.9 0 34.52 108.27 34.53 -108.27zm159.99 228.95l0 -172.98c0,-7.59 1.46,-14.8 4.37,-21.61 2.89,-6.82 6.87,-12.79 11.88,-17.93 5.03,-5.14 10.91,-9.17 17.61,-12.07 6.71,-2.91 13.97,-4.36 21.78,-4.36l47.61 0 0 40.22 -47.61 0c-4.46,0 -8.14,1.51 -11.05,4.53 -2.91,3.02 -4.37,6.76 -4.37,11.22l0 172.98c0,4.46 1.46,8.2 4.37,11.22 2.91,3.02 6.59,4.53 11.05,4.53l47.61 0 0 40.22 -47.61 0c-7.81,0 -15.07,-1.46 -21.78,-4.36 -6.7,-2.9 -12.58,-6.93 -17.61,-12.07 -5.01,-5.13 -8.99,-11.06 -11.88,-17.76 -2.91,-6.71 -4.37,-13.97 -4.37,-21.78zm325.25 55.97l0 -105.92 -50.27 0 0 105.92 -40.22 0 0 -284.92 40.22 0 0 138.77 50.27 0 0 -138.77 40.24 0 0 284.92 -40.24 0zm273.32 0l-9.05 -55.64 -54.98 0 -9.04 55.64 -39.9 0 45.59 -284.92 61.68 0 45.58 284.92 -39.88 0zm-57.65 -95.86l42.23 0 -21.12 -137.44 -21.11 137.44zm319.21 95.86l-60.01 -170.62 0 170.62 -40.22 0 0 -284.92 40.22 0 60.01 170.62 0 -170.62 40.22 0 0 284.92 -40.22 0zm300.45 -151.17l0 151.17 -53.3 0 -22.12 0c-8.72,0 -16.38,-2.01 -22.96,-6.03 -6.59,-4.03 -12.18,-9.17 -16.76,-15.42 -4.59,-6.26 -8,-13.19 -10.23,-20.78 -2.23,-7.61 -3.35,-14.87 -3.35,-21.79l0 -158.22c0,-8.94 1.45,-17.38 4.36,-25.3 2.9,-7.94 7.04,-14.76 12.4,-20.45 5.36,-5.7 11.74,-10.23 19.11,-13.58 7.37,-3.35 15.53,-5.03 24.47,-5.03l10.72 0c8.94,0 16.98,1.79 24.13,5.36 7.15,3.58 13.25,8.33 18.28,14.25 5.03,5.93 8.82,12.8 11.39,20.61 2.57,7.83 3.86,15.88 3.86,24.14l0 26.82 -40.23 0 0 -26.82c0,-6.47 -1.51,-12.02 -4.52,-16.59 -3.02,-4.58 -7.77,-7.09 -14.25,-7.55l-11.06 0c-6.93,0.68 -11.74,3.41 -14.41,8.22 -2.69,4.8 -4.03,10.06 -4.03,15.86l0 158c0,6.87 1.67,12.62 5.03,17.21 3.35,4.57 8.49,6.87 15.42,6.87l7.37 0 20.45 0 0 -70.73 -26.81 0 0 -40.22 67.04 0zm131.51 95.2l0 -172.98c0,-7.59 1.46,-14.8 4.37,-21.61 2.89,-6.82 6.87,-12.79 11.88,-17.93 5.03,-5.14 10.91,-9.17 17.61,-12.07 6.71,-2.91 13.97,-4.36 21.78,-4.36l47.61 0 0 40.22 -47.61 0c-4.46,0 -8.14,1.51 -11.05,4.53 -2.91,3.02 -4.37,6.76 -4.37,11.22l0 68.06 63.03 0 0 40.22 -63.03 0 0 64.7c0,4.46 1.46,8.2 4.37,11.22 2.91,3.02 6.59,4.53 11.05,4.53l47.61 0 0 40.22 -47.61 0c-7.81,0 -15.07,-1.46 -21.78,-4.36 -6.7,-2.9 -12.58,-6.93 -17.61,-12.07 -5.01,-5.13 -8.99,-11.06 -11.88,-17.76 -2.91,-6.71 -4.37,-13.97 -4.37,-21.78z"/>
  </g>
 </g>
</svg>
